<svg viewBox="0 0 26.458333 26.458334" version="1.1" xmlns="http://www.w3.org/2000/svg" xmlns:svg="http://www.w3.org/2000/svg">
   <path
       d="m 25.276937,7.5568825 0.269789,0.328081 -0.269789,0.328082 c -0.04412,0.0538 -0.126495,0.1500425 -0.245192,0.2826335 -0.195217,0.218253 -0.422879,0.460676 -0.68115,0.721306 -0.736318,0.743107 -1.572312,1.485766 -2.493696,2.179647 -2.65354,1.99833 -5.470943,3.20298 -8.342071,3.20298 -2.871089,0 -5.6884943,-1.20465 -8.3420315,-3.20298 C 4.2514144,10.702751 3.4154185,9.960092 2.6791008,9.216985 2.4210246,8.95637 2.1931678,8.713908 1.9979513,8.495679 1.8792596,8.363088 1.7968782,8.266885 1.7527593,8.2130455 L 1.4829701,7.8849635 1.7527593,7.5568825 c 0.044119,-0.05384 0.1265003,-0.150044 0.245192,-0.282634 C 2.1931678,7.0559968 2.4208293,6.8135719 2.6791008,6.5529431 3.4154185,5.8098353 4.2514144,5.0671776 5.1727965,4.3732959 7.8263337,2.3749647 10.643739,1.1703152 13.514828,1.1703152 c 2.871128,0 5.688531,1.2046495 8.342071,3.2029807 0.921384,0.6938817 1.757378,1.4365394 2.493696,2.1796472 0.258077,0.2606133 0.485933,0.5030734 0.68115,0.7213054 0.118686,0.132586 0.201073,0.228793 0.245192,0.282634 z M 23.616738,7.2800655 C 22.913606,6.5704886 22.114351,5.8604585 21.235369,5.1985036 18.744952,3.3230034 16.126318,2.2033549 13.51475,2.2033549 c -2.611529,0 -5.2301641,1.1196485 -7.7205793,2.9951487 -0.8789809,0.6619549 -1.6782369,1.371985 -2.3813676,2.0815619 -0.2147384,0.216886 -0.4069495,0.419872 -0.574757,0.604902 0.1678863,0.185026 0.3599792,0.3880125 0.574757,0.6049065 0.7031307,0.709576 1.5023867,1.419601 2.3813676,2.081562 2.4904152,1.875496 5.1090503,2.995144 7.7205793,2.995144 2.611568,0 5.230202,-1.119648 7.720619,-2.995144 0.878982,-0.661961 1.678237,-1.371986 2.381369,-2.081562 0.214737,-0.216887 0.406909,-0.4198755 0.574717,-0.6049065 -0.167886,-0.185026 -0.35998,-0.388012 -0.574717,-0.604902 z M 13.51475,11.499363 c -2.000305,0 -3.6155675,-1.626474 -3.6155675,-3.6149845 0,-1.9782618 1.6370475,-3.6149852 3.6155675,-3.6149852 2.000344,0 3.615605,1.6264741 3.615605,3.6149852 0,2.0102065 -1.605109,3.6149845 -3.615605,3.6149845 z"
       fill-rule="nonzero"
       style="stroke:none;stroke-width:1.03302" />
    <path
       d="m 5.4046476,19.516888 -0.012943,1.790877 c -0.00197,0.27553 -0.2100928,0.48071 -0.4856052,0.478739 l -3.3062703,-0.02342 c -0.2066953,-0.0014 -0.3111752,0.169994 -0.209116,0.342917 0.2027129,0.552513 0.5436781,1.037135 0.9540193,1.453364 1.5393176,1.491927 4.3286927,1.546282 5.9574291,0.145748 0.5545392,-0.47819 0.902842,-1.026819 1.1485604,-1.679468 l 13.7761161,0.09816 c 0.895454,0.0062 1.623371,-0.642836 1.663909,-1.503612 0.04107,-0.929653 -0.642825,-1.623355 -1.572422,-1.664476 L 9.4733238,18.857046 c -0.236914,-0.587203 -0.6115821,-1.175372 -1.1245136,-1.695663 -1.573915,-1.45779 -4.3638444,-1.443223 -5.9589047,0.06086 -0.450915,0.444536 -0.7987753,0.924225 -1.0435144,1.439132 -0.069848,0.137356 0.066452,0.344909 0.2042356,0.345846 l 3.3062658,0.02342 c 0.3444,0.0024 0.5495855,0.21056 0.5476721,0.486046 z m 18.2494234,0.681091 c 0.205173,0.208101 0.20322,0.48363 -0.0051,0.688799 -0.208102,0.205171 -0.483626,0.20322 -0.688799,-0.0051 -0.205172,-0.208101 -0.20322,-0.483626 0.0051,-0.688799 0.208101,-0.205171 0.483629,-0.20322 0.688797,0.0051 z"
       style="stroke-width:0.487073" />
</svg>
