<svg xmlns="http://www.w3.org/2000/svg" xmlns:xlink="http://www.w3.org/1999/xlink" viewBox="0 0 24 30" version="1.1" x="0px" y="0px"><g stroke="none" stroke-width="1" fill-rule="evenodd"><path d="M23.3861785,11.6824057 L23.647369,12 L23.3861785,12.3175943 C23.3433287,12.3696975 23.2635891,12.4628403 23.1487712,12.5911841 C22.9597809,12.802438 22.739391,13.0371329 22.4893899,13.2894321 C21.7765874,14.0087871 20.9673149,14.7277047 20.0753822,15.3994074 C17.5066859,17.3338589 14.7793167,18.5 12,18.5 C9.22068326,18.5 6.49331411,17.3338589 3.92461777,15.3994074 C3.03268514,14.7277047 2.22341256,14.0087871 1.51061008,13.2894321 C1.26060903,13.0371329 1.04021912,12.802438 0.851228804,12.5911841 C0.736410895,12.4628403 0.656671267,12.3696975 0.613821465,12.3175943 L0.352631031,12 L0.613821465,11.6824057 C0.656671267,11.6303025 0.736410895,11.5371597 0.851228804,11.4088159 C1.04021912,11.197562 1.26060903,10.9628671 1.51061008,10.7105679 C2.22341256,9.99121295 3.03268514,9.27229533 3.92461777,8.60059258 C6.49331411,6.66614109 9.22068326,5.5 12,5.5 C14.7793167,5.5 17.5066859,6.66614109 20.0753822,8.60059258 C20.9673149,9.27229533 21.7765874,9.99121295 22.4893899,10.7105679 C22.739391,10.9628671 22.9597809,11.197562 23.1487712,11.4088159 C23.2635891,11.5371597 23.3433287,11.6303025 23.3861785,11.6824057 Z M21.7790554,11.4144321 C21.0984171,10.7275371 20.3246995,10.0402047 19.4738053,9.39940742 C17.0629964,7.58385891 14.5280687,6.5 12,6.5 C9.47193132,6.5 6.9370036,7.58385891 4.52619473,9.39940742 C3.67530054,10.0402047 2.90158289,10.7275371 2.22094461,11.4144321 C2.01290929,11.6243798 1.82702434,11.8208835 1.66458061,12 C1.82702434,12.1791165 2.01290929,12.3756202 2.22094461,12.5855679 C2.90158289,13.2724629 3.67530054,13.9597953 4.52619473,14.6005926 C6.9370036,16.4161411 9.47193132,17.5 12,17.5 C14.5280687,17.5 17.0629964,16.4161411 19.4738053,14.6005926 C20.3246995,13.9597953 21.0984171,13.2724629 21.7790554,12.5855679 C21.9870907,12.3756202 22.1729757,12.1791165 22.3354194,12 C22.1729757,11.8208835 21.9870907,11.6243798 21.7790554,11.4144321 Z M12,15.4988581 C10.0636145,15.4988581 8.5,13.9243746 8.5,11.999429 C8.5,10.0844021 10.0847037,8.5 12,8.5 C13.9363855,8.5 15.5,10.0744835 15.5,11.999429 C15.5,13.9453779 13.9462242,15.4988581 12,15.4988581 Z" fill-rule="nonzero"/>
</svg>