<svg xmlns="http://www.w3.org/2000/svg" xmlns:xlink="http://www.w3.org/1999/xlink" xml:space="preserve" version="1.1" style="shape-rendering:geometricPrecision;text-rendering:geometricPrecision;image-rendering:optimizeQuality;" viewBox="0 0 1693.32 2116.65" x="0px" y="0px" fill-rule="evenodd" clip-rule="evenodd"><g><path d="M185.78 185.78l402.47 0 0 130.7 -271.77 0 0 271.77 -130.7 0 0 -402.47zm434.35 434.35l453.06 0 0 453.06 -453.06 0 0 -453.06zm-303.65 484.94l0 271.77 271.77 0 0 130.7 -402.47 0 0 -402.47 130.7 0zm788.59 -919.29l402.47 0 0 402.47 -130.7 0 0 -271.77 -271.77 0 0 -130.7zm402.47 919.29l0 402.47 -402.47 0 0 -130.7 271.77 0 0 -271.77 130.7 0z"/></g></svg>