<svg xmlns="http://www.w3.org/2000/svg" viewBox="0 0 48 50" x="0px" y="0px"><title>Space</title><path d="M42.43,19.47a19,19,0,0,0-36.86,0C1.89,20.66,0,22.18,0,24s1.89,3.34,5.57,4.53a19,19,0,0,0,36.86,0C46.11,27.34,48,25.82,48,24S46.11,20.66,42.43,19.47ZM5.15,26.27C2.71,25.33,2,24.43,2,24s.71-1.33,3.15-2.27a17.25,17.25,0,0,0,0,4.54ZM24,41A17,17,0,0,1,7.81,29.17,71.69,71.69,0,0,0,24,30.83c1.39,0,2.79,0,4.19-.1A4.48,4.48,0,0,0,37,29.81c1.15-.19,2.23-.41,3.22-.65A17,17,0,0,1,24,41Zm6-11.5A2.5,2.5,0,1,1,32.5,32,2.5,2.5,0,0,1,30,29.5ZM40.73,27a40.37,40.37,0,0,1-4.06.89,4.48,4.48,0,0,0-8.59.89c-7.8.36-15.62-.33-20.81-1.77A18.1,18.1,0,0,1,7,24,17,17,0,1,1,40.73,27Zm2.12-.68a17.25,17.25,0,0,0,0-4.54C45.29,22.67,46,23.57,46,24S45.29,25.33,42.85,26.27Z"/></svg>