<svg xmlns="http://www.w3.org/2000/svg" xmlns:xlink="http://www.w3.org/1999/xlink" version="1.1" x="0px" y="0px" viewBox="0 0 100 100" style="enable-background:new 0 0 100 100;" xml:space="preserve"><g><path d="M50,72.8c-12.6,0-22.8-10.2-22.8-22.8S37.4,27.2,50,27.2S72.8,37.4,72.8,50S62.6,72.8,50,72.8z M50,37.2   c-7,0-12.8,5.7-12.8,12.8S43,62.8,50,62.8S62.8,57,62.8,50S57,37.2,50,37.2z"/><path d="M50,23.9c-2.8,0-5-2.2-5-5V10c0-2.8,2.2-5,5-5s5,2.2,5,5v8.9C55,21.6,52.8,23.9,50,23.9z"/><path d="M72,33c-1.3,0-2.6-0.5-3.5-1.5c-2-2-2-5.1,0-7.1l6.3-6.3c2-2,5.1-2,7.1,0c2,2,2,5.1,0,7.1l-6.3,6.3   C74.6,32.5,73.3,33,72,33z"/><path d="M90,55h-8.9c-2.8,0-5-2.2-5-5s2.2-5,5-5H90c2.8,0,5,2.2,5,5S92.8,55,90,55z"/><path d="M78.3,83.3c-1.3,0-2.6-0.5-3.5-1.5l-6.3-6.3c-2-2-2-5.1,0-7.1c2-2,5.1-2,7.1,0l6.3,6.3c2,2,2,5.1,0,7.1   C80.8,82.8,79.6,83.3,78.3,83.3z"/><path d="M50,95c-2.8,0-5-2.2-5-5v-8.9c0-2.8,2.2-5,5-5s5,2.2,5,5V90C55,92.8,52.8,95,50,95z"/><path d="M21.7,83.3c-1.3,0-2.6-0.5-3.5-1.5c-2-2-2-5.1,0-7.1l6.3-6.3c2-2,5.1-2,7.1,0c2,2,2,5.1,0,7.1l-6.3,6.3   C24.3,82.8,23,83.3,21.7,83.3z"/><path d="M18.9,55H10c-2.8,0-5-2.2-5-5s2.2-5,5-5h8.9c2.8,0,5,2.2,5,5S21.7,55,18.9,55z"/><path d="M28,33c-1.3,0-2.6-0.5-3.5-1.5l-6.3-6.3c-2-2-2-5.1,0-7.1c2-2,5.1-2,7.1,0l6.3,6.3c2,2,2,5.1,0,7.1   C30.6,32.5,29.3,33,28,33z"/></g></svg>