<svg xmlns="http://www.w3.org/2000/svg" xmlns:xlink="http://www.w3.org/1999/xlink" version="1.1" x="0px" y="0px" viewBox="0 0 100 125" style="enable-background:new 0 0 100 100;" xml:space="preserve"><path d="M61.3,41.3l-2.6-2.6c-0.4-0.4-0.4-1,0-1.4l4.8-4.8c0.3-0.3,0.2-0.7-0.2-0.8C62.2,31.2,61,31,59.8,31  c-4.4,0.1-8.5,4.1-8.8,8.5c-0.1,1.5,0.2,2.8,0.8,4.1l-20,20c-1.3,1.3-1.4,3.3-0.2,4.6c1.3,1.4,3.3,1.4,4.7,0.1l20.1-20.1  c1.2,0.5,2.6,0.8,4.1,0.8c4.4-0.2,8.4-4.3,8.5-8.8c0-1.3-0.2-2.5-0.6-3.6c-0.1-0.3-0.6-0.4-0.8-0.2l-4.8,4.8  C62.3,41.7,61.7,41.7,61.3,41.3z M34,67c-0.6,0-1-0.4-1-1s0.4-1,1-1s1,0.4,1,1S34.6,67,34,67z"/></svg>