<svg xmlns="http://www.w3.org/2000/svg" xmlns:xlink="http://www.w3.org/1999/xlink" version="1.1" x="0px" y="0px" viewBox="0 0 100 100" enable-background="new 0 0 100 100" xml:space="preserve"><path d="M72.4,60.1c8.7-14.2,6.9-33.1-5.4-45.3c-14.4-14.4-37.8-14.4-52.2,0S0.4,52.6,14.8,67c12.3,12.3,31.1,14,45.3,5.4l21.1,21.1  c3.4,3.4,8.9,3.4,12.2,0s3.4-8.9,0-12.2L72.4,60.1z M59.4,59.4c-10.2,10.2-26.8,10.2-37,0c-10.2-10.2-10.2-26.8,0-37  c10.2-10.2,26.8-10.2,37,0C69.6,32.6,69.6,49.2,59.4,59.4z M45.2,36.2h11.1v8.5H45.2v11.1h-8.5V44.7H25.6v-8.5h11.1V25.1h8.5V36.2z"/></svg>